<?xml version="1.0" encoding="UTF-8" standalone="no"?>
<svg
   xmlns:dc="http://purl.org/dc/elements/1.1/"
   xmlns:cc="http://creativecommons.org/ns#"
   xmlns:rdf="http://www.w3.org/1999/02/22-rdf-syntax-ns#"
   xmlns:svg="http://www.w3.org/2000/svg"
   xmlns="http://www.w3.org/2000/svg"
   xmlns:sodipodi="http://sodipodi.sourceforge.net/DTD/sodipodi-0.dtd"
   xmlns:inkscape="http://www.inkscape.org/namespaces/inkscape"
   width="16.0px"
   height="16.0px"
   viewBox="0 0 16.0 16.0"
   version="1.1"
   id="SVGRoot"
   sodipodi:docname="fullscreen.svg"
   inkscape:version="1.0.2-2 (e86c870879, 2021-01-15)">
  <defs
     id="defs1402" />
  <sodipodi:namedview
     id="base"
     pagecolor="#ffffff"
     bordercolor="#666666"
     borderopacity="1.0"
     inkscape:pageopacity="0.0"
     inkscape:pageshadow="2"
     inkscape:zoom="30.025575"
     inkscape:cx="5.9809041"
     inkscape:cy="4.2857794"
     inkscape:document-units="px"
     inkscape:current-layer="layer1"
     inkscape:document-rotation="0"
     showgrid="true"
     inkscape:window-width="1920"
     inkscape:window-height="1017"
     inkscape:window-x="1912"
     inkscape:window-y="-8"
     inkscape:window-maximized="1"
     inkscape:snap-global="true">
    <inkscape:grid
       type="xygrid"
       id="grid1972" />
  </sodipodi:namedview>
  <metadata
     id="metadata1405">
    <rdf:RDF>
      <cc:Work
         rdf:about="">
        <dc:format>image/svg+xml</dc:format>
        <dc:type
           rdf:resource="http://purl.org/dc/dcmitype/StillImage" />
        <dc:title></dc:title>
      </cc:Work>
    </rdf:RDF>
  </metadata>
  <g
     inkscape:label="Layer 1"
     inkscape:groupmode="layer"
     id="layer1">
    <rect
       style="fill:#000000;stroke:none;stroke-width:2.513;paint-order:markers stroke fill;stroke-miterlimit:4;stroke-dasharray:none"
       id="rect832"
       width="16"
       height="16"
       x="0"
       y="0" />
    <path
       id="path834"
       style="fill:#ff8000;fill-opacity:1;stroke:none;stroke-width:1px;stroke-linecap:butt;stroke-linejoin:miter;stroke-opacity:1"
       d="M 1,1 C 1,2.3333333 1,3.6666667 1,5 H 2 V 2.8339844 L 5.1660156,6 6,5.1660156 2.8339844,2 H 5 V 1 C 3.6666667,1 2.3333333,1 1,1 Z"
       sodipodi:nodetypes="cccccccccc" />
    <path
       id="path839"
       style="fill:#ff8000;fill-opacity:1;stroke:none;stroke-width:1px;stroke-linecap:butt;stroke-linejoin:miter;stroke-opacity:1"
       d="m 1,15 c 1.333333,0 2.666666,0 4,0 V 14 H 2.833984 L 6,10.833984 5.166015,10 2,13.166016 V 11 H 1 c 0,1.333333 0,2.666667 0,4 z"
       sodipodi:nodetypes="cccccccccc" />
    <path
       id="path841"
       style="fill:#ff8000;fill-opacity:1;stroke:none;stroke-width:1px;stroke-linecap:butt;stroke-linejoin:miter;stroke-opacity:1"
       d="m 15,1 c 0,1.3333333 0,2.6666667 0,4 H 14 V 2.8339844 L 10.833984,6 9.9999998,5.1660156 13.166016,2 H 11 V 1 c 1.333333,0 2.666667,0 4,0 z"
       sodipodi:nodetypes="cccccccccc" />
    <path
       id="path843"
       style="fill:#ff8000;fill-opacity:1;stroke:none;stroke-width:1px;stroke-linecap:butt;stroke-linejoin:miter;stroke-opacity:1"
       d="m 15,15.000001 c -1.333333,0 -2.666666,0 -4,0 v -1 h 2.166016 L 9.9999998,10.833985 10.833985,10.000001 14,13.166017 v -2.166016 h 1 c 0,1.333333 0,2.666667 0,4 z"
       sodipodi:nodetypes="cccccccccc" />
  </g>
</svg>
